<svg width="1600" height="900" viewBox="0 0 1600 900" fill="none" xmlns="http://www.w3.org/2000/svg">
  <defs>
    <linearGradient id="bg" x1="120" y1="124" x2="1454" y2="770" gradientUnits="userSpaceOnUse">
      <stop stop-color="#EEF6FF"/>
      <stop offset="0.48" stop-color="#E8FFF5"/>
      <stop offset="1" stop-color="#10294E"/>
    </linearGradient>
  </defs>
  <rect width="1600" height="900" rx="48" fill="url(#bg)"/>
  <circle cx="1190" cy="220" r="160" fill="#7FE8D5" fill-opacity="0.22"/>
  <circle cx="390" cy="700" r="160" fill="#95D2FF" fill-opacity="0.18"/>
  <path d="M280 430C360 312 460 252 580 252C708 252 810 306 898 412C978 508 1074 560 1194 560C1304 560 1386 522 1436 476" stroke="#103C7E" stroke-width="18" stroke-linecap="round"/>
  <path d="M250 496C346 394 454 344 574 344C696 344 802 396 888 500C970 598 1070 648 1188 648C1280 648 1358 618 1422 566" stroke="#2B8C6B" stroke-width="14" stroke-linecap="round"/>
  <path d="M212 592C316 492 436 438 562 438C682 438 782 484 868 580C956 676 1060 726 1178 726C1276 726 1366 694 1434 636" stroke="#B9DAFF" stroke-width="12" stroke-linecap="round"/>
  <text x="214" y="204" fill="#0E2139" font-family="Georgia, 'Times New Roman', serif" font-size="68" font-weight="700">Ripple Canvas Showcase</text>
  <text x="214" y="264" fill="#4E678A" font-family="Arial, sans-serif" font-size="26" letter-spacing="3">THREE.JS  /  TEXT  /  PARALLAX  /  MOTION</text>
</svg>
