<svg width="1600" height="900" viewBox="0 0 1600 900" fill="none" xmlns="http://www.w3.org/2000/svg">
  <defs>
    <linearGradient id="bg" x1="140" y1="90" x2="1430" y2="820" gradientUnits="userSpaceOnUse">
      <stop stop-color="#F2FFF9"/>
      <stop offset="0.55" stop-color="#EDF3FF"/>
      <stop offset="1" stop-color="#F4F9EF"/>
    </linearGradient>
  </defs>
  <rect width="1600" height="900" rx="48" fill="url(#bg)"/>
  <rect x="172" y="128" width="1256" height="644" rx="40" fill="white" fill-opacity="0.64" stroke="#D8E7DE"/>
  <rect x="232" y="198" width="470" height="504" rx="30" fill="#0F1D18"/>
  <rect x="780" y="198" width="588" height="124" rx="30" fill="white" fill-opacity="0.88" stroke="#D7E7DE"/>
  <rect x="780" y="360" width="274" height="154" rx="28" fill="#DDF7EC"/>
  <rect x="1094" y="360" width="274" height="154" rx="28" fill="#E9F0FF"/>
  <rect x="780" y="548" width="588" height="154" rx="28" fill="white" fill-opacity="0.88" stroke="#D7E7DE"/>
  <circle cx="276" cy="240" r="8" fill="#8FE3BC"/>
  <circle cx="306" cy="240" r="8" fill="#FFE09A"/>
  <circle cx="336" cy="240" r="8" fill="#95D2FF"/>
  <path d="M294 312H480" stroke="#8FE3BC" stroke-width="12" stroke-linecap="round"/>
  <path d="M294 364H546" stroke="#4BE0B8" stroke-width="12" stroke-linecap="round"/>
  <path d="M294 416H632" stroke="#95D2FF" stroke-width="12" stroke-linecap="round"/>
  <path d="M294 468H506" stroke="#8FE3BC" stroke-width="12" stroke-linecap="round"/>
  <path d="M294 520H566" stroke="#95D2FF" stroke-width="12" stroke-linecap="round"/>
  <path d="M294 572H454" stroke="#4BE0B8" stroke-width="12" stroke-linecap="round"/>
  <text x="812" y="274" fill="#193127" font-family="Georgia, 'Times New Roman', serif" font-size="60" font-weight="700">MDX + Zod</text>
  <text x="812" y="438" fill="#2B8C6B" font-family="Arial, sans-serif" font-size="36" font-weight="700">TYPE SAFE CONTENT</text>
  <text x="1114" y="438" fill="#3559B6" font-family="Arial, sans-serif" font-size="36" font-weight="700">SEO FIRST</text>
  <path d="M822 602H1288" stroke="#B9DACC" stroke-width="14" stroke-linecap="round"/>
  <path d="M822 648H1198" stroke="#B9DACC" stroke-width="14" stroke-linecap="round"/>
</svg>
